<svg width="1280" height="301" viewBox="0 0 1280 301" fill="none" xmlns="http://www.w3.org/2000/svg">
<mask id="path-1-inside-1" fill="white">
<path d="M707.8 12.7L695 25.5V76C694.9 118.8 694.7 126.8 693.5 128.4C692.3 130 692 133.8 692 145.7V161H688.7C685.9 161 684.2 159.7 676.8 152.2L668 143.5L667.8 125C667.5 106.7 667.5 106.5 665.3 106.2C663.3 105.9 663 105.3 663 101.4C663 97.7 662.7 97 661 97C659.2 97 659 96.3 659 91C659 86.4 658.7 85 657.6 85C656.5 85 656 83.5 655.8 79.7L655.5 74.5L650.3 74.2L645 73.9V79.5C645 83.5 644.6 85.2 643.5 85.6C642.4 86 642 87.7 642 91.1C642 95.3 641.7 96 640 96C638.1 96 638 96.7 638 118V140H635.1C632.3 140 632.1 140.2 631.8 144.7C631.5 149.2 631.3 149.5 628.1 150.1C626.1 150.5 622.9 152.6 619.9 155.6L615 160.4V135.7C615 111.9 614.9 111 613.1 111C611.7 111 611 110.2 610.8 108.2C610.5 105.6 610.3 105.5 605 105.5C599.7 105.5 599.5 105.6 599.2 108.2C598.9 110.4 598.3 111 596.4 111H594V125.5V140H588.5H583V132.9V125.9L578.8 126.2C575.3 126.4 574.5 126.9 574.5 128.5C574.5 129.8 573.7 130.6 572.3 130.8C570.3 131.1 570 131.7 570 135.6V140H561.1H552.3L547.6 135C543.8 130.9 543 129.4 543 126.2C543 123.2 542.3 121.7 539.5 119C536.9 116.5 536 114.8 536 112.3C536 109.2 535.8 109 532.5 109C529.4 109 529 108.7 529 106.5C529 104.1 528.7 104 523 104C517.3 104 517 104.1 517 106.4C517 108.1 516.4 109 514.9 109.2C512.9 109.5 512.8 110.1 512.7 123L512.5 136.5L509.8 136.8C507.1 137.1 507 137.3 507 143.4C507 149.6 507 149.6 501.5 155L496 160.4V132.3V104.1L488.8 103.8L481.5 103.5L481.2 99.7L480.9 96H471.6H462.3L457.1 101.4L452 106.9V125.9V145H448.2C445.6 145 443.7 145.7 442.6 146.9C441.6 148 439.4 149 437.6 149.2C434.5 149.5 434.5 149.5 434.2 155.8L433.9 162.1L426.2 161.8L418.5 161.5L418 149.5L417.5 137.5L411.8 137.2L406 136.9V100V63H396.8C388.2 63 387.4 63.2 384.8 65.7C382 68.3 382 68.5 382 80.7V93.1L377.8 92.8L373.5 92.5L373.2 58.8L373 25.1L365.2 24.8L357.5 24.5L357.2 18.7C357 15.6 356.4 13 355.9 13C355.3 13 350.5 17.3 345.2 22.6L335.5 32.2L335 83.8L334.5 135.5H329H323.5L323.2 126.2C323 118.9 322.6 117 321.5 117C320.2 117 320 114.6 320 103V89H317C315 89 313.1 88.1 311.6 86.5C309.5 84.2 308.5 84 301.3 84C294.3 84 293.1 84.3 291.2 86.3C289.1 88.5 289 89.5 289 107.8V127H283H277V136.5V146.1L268.3 145.8L259.5 145.5L259.2 105.2L259 65H248.1H237.1L236.8 68.2C236.6 70.7 236 71.6 234.3 71.8L232 72.1V112.1V152H229.1C226.3 152 226.1 152.2 225.8 156.7L225.5 161.5L219.8 161.8L214 162.1V154.5C214 147.2 213.9 147 211.5 147H209V137V127H206C203.2 127 203 126.8 203 123C203 119.4 202.7 119 200.6 119C198.5 119 198.1 118.4 197.8 115.7L197.5 112.5H191C185.9 112.5 184.5 112.8 184.5 114C184.5 115 183.2 115.7 180.5 116L176.5 116.5L176.2 126.3L175.9 136.1L171.7 135.8L167.5 135.5L167.2 124.7L166.9 114H161.1C156.3 114 155 114.4 153 116.5C151 118.6 149.7 119 144.8 119H139V137C139 150.7 138.7 155 137.8 155.2C137.1 155.2 135.8 155.3 135 155.4C134.1 155.5 133.4 156.7 133.2 158.8L132.9 162.1L121.7 161.8L110.5 161.5L110.2 140.2C110 122.3 109.7 119 108.5 119C107.5 119 107 118 107 116C107 113 106.9 113 101.5 113C96.3 113 96 113.2 96 115.4C96 117.2 95.4 117.9 93.8 118.2C92.1 118.4 91.4 119.3 91.2 121.2C91 122.8 90.5 124 90 124C89.4 124 88.9 132.3 88.8 142.7L88.5 161.5H82H75.5L75 154.1L74.5 146.8L66 146.6L57.5 146.5L57.2 119.2C57 92.8 56.9 92 55 92C53.7 92 53 91.3 53 90C53 88.2 52.3 88 46.9 88C43.6 88 41.1 88.4 41.4 88.9C42.5 90.7 40.8 93 38.4 93H36V110V127H30.5H25L24.8 144.2L24.5 161.5L21.3 161.8L18 162.1V140.1V118H13.9C10.7 118 9.7 118.4 9.3 120C9 121.1 7.9 122 6.9 122C5.2 122 5 123.3 4.8 141.7C4.5 161.4 4.5 161.5 2.3 161.8L0 162.1V231.6V301H640H1280V214V127H1273H1266L1265.8 144.2L1265.5 161.5H1258H1250.5L1250.2 128.2L1250 95H1244.7C1239.9 95 1239.1 95.3 1235.7 98.8L1232 102.6V120.8V139H1229.1C1225.2 139 1221 143.9 1221 148.6C1221 151.3 1220.6 152 1219 152C1217.1 152 1217 151.3 1217 131V110H1212.2C1205.8 110 1203.2 112.6 1202.8 119.5L1202.5 124.5L1196.8 124.8L1191 125.1L1190.8 105.8C1190.5 87.3 1190.4 86.5 1188.5 86.5C1187.2 86.5 1186.4 85.7 1186.2 84.2C1185.9 82.3 1185.3 81.9 1182.7 82.2C1180 82.4 1179.4 83 1179.2 85.2C1178.9 87.7 1178.4 88 1175.3 88H1171.7L1172.2 119.7C1172.5 137.2 1172.5 153.9 1172.3 156.7L1171.7 162H1159.9H1148V148.5V135H1143.5H1139.1L1138.8 123.2L1138.5 111.5L1129.8 111.2L1121 110.9V133.5V156H1117.5H1114V144.1C1114 132.4 1113.9 132.1 1111.4 130.1C1109.4 128.6 1107.3 128 1103.4 128H1098V114.5V101H1091.5H1085V115.9C1085 129.2 1084.8 131 1083 133.3C1081.5 135.2 1081 137.3 1081 142.4V149H1075.5H1070.1L1069.8 134.2L1069.5 119.5L1063.3 119.2L1057 118.9V121.9C1057 124.8 1056.8 124.9 1052.3 125.2L1047.5 125.5L1047.2 137.2L1046.9 149H1041.5H1036V135.5V122H1030.7C1026.3 122 1024.9 122.4 1023 124.5C1021 126.6 1019.7 127 1015 127C1008 127 1005 129.5 1005 135.3V139H999.5H994.1L993.8 125.7L993.5 112.5L983.8 112.2L974 111.9V120.4V128.9L966.8 129.2L959.5 129.5L959.2 141.2L958.9 153H950H941V149.5C941 146.7 940.2 145.3 936.5 141.9C932.2 138 932 137.5 932 132.4V127H925H918V134.8C918 141.2 917.6 143 916.2 144.3C913 147.2 908.8 146.4 904.7 142.2C901.2 138.7 901 138 901 132.2V126H897.5H894V112V98H886H878V130V162.1L871.8 161.8L865.5 161.5L865.2 147.4L864.9 133.3L862 130.5C859.1 127.7 859 127.3 859 118.7C859 106.9 858.5 106 851 106H845V123.3V140.6L842 143.5L839 146.4V137.2V128H836C833.5 128 833 127.6 833 125.6C833 122.4 832.3 122 827.1 122.7C824 123.1 822.6 123.8 822.3 125.1C821.9 126.4 820.8 127 818.9 127H816L815.8 144.2L815.5 161.5H809.5H803.5L803.2 140.2L803 119H800.2C798.2 119 796.1 117.6 792.5 114C787.8 109.3 787.3 109 782.3 109C777.3 109 777 109.1 777 111.5C777 113.7 776.6 114 773 114H769V118V122H763.5C758.1 122 758 122 758 125C758 127.7 757.7 128 755 128H752V145V162H744.6C738.8 162 737.1 161.7 736.6 160.4C736.3 159.5 736 153.3 736 146.5C736 136.8 735.7 134 734.5 133C733.4 132.1 733 129.6 733 123.4V115H727H721L720.8 57.5L720.5 -4.48525e-06L707.8 12.7Z"/>
</mask>
<path d="M707.8 12.7L695 25.5V76C694.9 118.8 694.7 126.8 693.5 128.4C692.3 130 692 133.8 692 145.7V161H688.7C685.9 161 684.2 159.7 676.8 152.2L668 143.5L667.8 125C667.5 106.7 667.5 106.5 665.3 106.2C663.3 105.9 663 105.3 663 101.4C663 97.7 662.7 97 661 97C659.2 97 659 96.3 659 91C659 86.4 658.7 85 657.6 85C656.5 85 656 83.5 655.8 79.7L655.5 74.5L650.3 74.2L645 73.9V79.5C645 83.5 644.6 85.2 643.5 85.6C642.4 86 642 87.7 642 91.1C642 95.3 641.7 96 640 96C638.1 96 638 96.7 638 118V140H635.1C632.3 140 632.1 140.2 631.8 144.7C631.5 149.2 631.3 149.5 628.1 150.1C626.1 150.5 622.9 152.6 619.9 155.6L615 160.4V135.7C615 111.9 614.9 111 613.1 111C611.7 111 611 110.2 610.8 108.2C610.5 105.6 610.3 105.5 605 105.5C599.7 105.5 599.5 105.6 599.2 108.2C598.9 110.4 598.3 111 596.4 111H594V125.5V140H588.5H583V132.9V125.9L578.8 126.2C575.3 126.4 574.5 126.9 574.5 128.5C574.5 129.8 573.7 130.6 572.3 130.8C570.3 131.1 570 131.7 570 135.6V140H561.1H552.3L547.6 135C543.8 130.9 543 129.4 543 126.2C543 123.2 542.3 121.7 539.5 119C536.9 116.5 536 114.8 536 112.3C536 109.2 535.8 109 532.5 109C529.4 109 529 108.7 529 106.5C529 104.1 528.7 104 523 104C517.3 104 517 104.1 517 106.4C517 108.1 516.4 109 514.9 109.2C512.9 109.5 512.8 110.1 512.7 123L512.5 136.5L509.8 136.8C507.1 137.1 507 137.3 507 143.4C507 149.6 507 149.6 501.5 155L496 160.4V132.3V104.1L488.8 103.8L481.5 103.5L481.2 99.7L480.9 96H471.6H462.3L457.1 101.4L452 106.9V125.9V145H448.2C445.6 145 443.7 145.7 442.6 146.9C441.6 148 439.4 149 437.6 149.2C434.5 149.5 434.5 149.5 434.2 155.8L433.9 162.1L426.2 161.8L418.5 161.5L418 149.5L417.5 137.5L411.8 137.2L406 136.9V100V63H396.8C388.2 63 387.4 63.2 384.8 65.7C382 68.3 382 68.5 382 80.7V93.1L377.8 92.8L373.5 92.5L373.2 58.8L373 25.1L365.2 24.8L357.5 24.5L357.2 18.7C357 15.6 356.4 13 355.9 13C355.3 13 350.5 17.3 345.2 22.6L335.5 32.2L335 83.8L334.5 135.5H329H323.5L323.2 126.2C323 118.9 322.6 117 321.5 117C320.2 117 320 114.6 320 103V89H317C315 89 313.1 88.1 311.6 86.5C309.5 84.2 308.5 84 301.3 84C294.3 84 293.1 84.3 291.2 86.3C289.1 88.5 289 89.5 289 107.8V127H283H277V136.5V146.1L268.3 145.8L259.5 145.5L259.2 105.2L259 65H248.1H237.1L236.8 68.2C236.6 70.7 236 71.6 234.3 71.8L232 72.1V112.1V152H229.1C226.3 152 226.1 152.2 225.8 156.7L225.5 161.5L219.8 161.8L214 162.1V154.5C214 147.2 213.9 147 211.5 147H209V137V127H206C203.2 127 203 126.8 203 123C203 119.4 202.7 119 200.6 119C198.5 119 198.1 118.4 197.8 115.7L197.5 112.5H191C185.9 112.5 184.5 112.8 184.5 114C184.5 115 183.2 115.7 180.5 116L176.5 116.5L176.2 126.3L175.9 136.1L171.7 135.8L167.5 135.5L167.2 124.7L166.9 114H161.1C156.3 114 155 114.4 153 116.5C151 118.6 149.7 119 144.8 119H139V137C139 150.7 138.7 155 137.8 155.2C137.1 155.2 135.8 155.3 135 155.4C134.1 155.5 133.4 156.7 133.2 158.8L132.9 162.1L121.7 161.8L110.5 161.5L110.2 140.2C110 122.3 109.7 119 108.5 119C107.5 119 107 118 107 116C107 113 106.9 113 101.5 113C96.3 113 96 113.2 96 115.4C96 117.2 95.4 117.9 93.8 118.2C92.1 118.4 91.4 119.3 91.2 121.2C91 122.8 90.5 124 90 124C89.4 124 88.9 132.3 88.8 142.7L88.5 161.5H82H75.5L75 154.1L74.5 146.8L66 146.6L57.5 146.5L57.2 119.2C57 92.8 56.9 92 55 92C53.7 92 53 91.3 53 90C53 88.2 52.3 88 46.9 88C43.6 88 41.1 88.4 41.4 88.9C42.5 90.7 40.8 93 38.4 93H36V110V127H30.5H25L24.8 144.2L24.5 161.5L21.3 161.8L18 162.1V140.1V118H13.9C10.7 118 9.7 118.4 9.3 120C9 121.1 7.9 122 6.9 122C5.2 122 5 123.3 4.8 141.7C4.5 161.4 4.5 161.5 2.3 161.8L0 162.1V231.6V301H640H1280V214V127H1273H1266L1265.8 144.2L1265.5 161.5H1258H1250.5L1250.2 128.2L1250 95H1244.7C1239.9 95 1239.1 95.3 1235.7 98.8L1232 102.6V120.8V139H1229.1C1225.2 139 1221 143.9 1221 148.6C1221 151.3 1220.6 152 1219 152C1217.1 152 1217 151.3 1217 131V110H1212.2C1205.8 110 1203.2 112.6 1202.8 119.5L1202.5 124.5L1196.8 124.8L1191 125.1L1190.8 105.8C1190.5 87.3 1190.4 86.5 1188.5 86.5C1187.2 86.5 1186.4 85.7 1186.2 84.2C1185.9 82.3 1185.3 81.9 1182.7 82.2C1180 82.4 1179.4 83 1179.2 85.2C1178.9 87.7 1178.4 88 1175.3 88H1171.7L1172.2 119.7C1172.5 137.2 1172.5 153.9 1172.3 156.7L1171.7 162H1159.9H1148V148.5V135H1143.5H1139.1L1138.8 123.2L1138.5 111.5L1129.8 111.2L1121 110.9V133.5V156H1117.5H1114V144.1C1114 132.4 1113.9 132.1 1111.4 130.1C1109.4 128.6 1107.3 128 1103.4 128H1098V114.5V101H1091.5H1085V115.9C1085 129.2 1084.8 131 1083 133.3C1081.5 135.2 1081 137.3 1081 142.4V149H1075.5H1070.1L1069.8 134.2L1069.5 119.5L1063.3 119.2L1057 118.9V121.9C1057 124.8 1056.8 124.9 1052.3 125.2L1047.5 125.5L1047.2 137.2L1046.9 149H1041.5H1036V135.5V122H1030.7C1026.3 122 1024.9 122.4 1023 124.5C1021 126.6 1019.7 127 1015 127C1008 127 1005 129.5 1005 135.3V139H999.5H994.1L993.8 125.7L993.5 112.5L983.8 112.2L974 111.9V120.4V128.9L966.8 129.2L959.5 129.5L959.2 141.2L958.9 153H950H941V149.5C941 146.7 940.2 145.3 936.5 141.9C932.2 138 932 137.5 932 132.4V127H925H918V134.8C918 141.2 917.6 143 916.2 144.3C913 147.2 908.8 146.4 904.7 142.2C901.2 138.7 901 138 901 132.2V126H897.5H894V112V98H886H878V130V162.1L871.8 161.8L865.5 161.5L865.2 147.4L864.9 133.3L862 130.5C859.1 127.7 859 127.3 859 118.7C859 106.9 858.5 106 851 106H845V123.3V140.6L842 143.5L839 146.4V137.2V128H836C833.5 128 833 127.6 833 125.6C833 122.4 832.3 122 827.1 122.7C824 123.1 822.6 123.8 822.3 125.1C821.9 126.4 820.8 127 818.9 127H816L815.8 144.2L815.5 161.5H809.5H803.5L803.2 140.2L803 119H800.2C798.2 119 796.1 117.6 792.5 114C787.8 109.3 787.3 109 782.3 109C777.3 109 777 109.1 777 111.5C777 113.7 776.6 114 773 114H769V118V122H763.5C758.1 122 758 122 758 125C758 127.7 757.7 128 755 128H752V145V162H744.6C738.8 162 737.1 161.7 736.6 160.4C736.3 159.5 736 153.3 736 146.5C736 136.8 735.7 134 734.5 133C733.4 132.1 733 129.6 733 123.4V115H727H721L720.8 57.5L720.5 -4.48525e-06L707.8 12.7Z" fill="black" stroke="#18F0F0" stroke-width="2" mask="url(#path-1-inside-1)"/>
</svg>
